# xmcd
#
# Track frame offsets: 
#        150
#        16737
#        31672
#        51195
#        61847
#        88805
#        102400
#        114990
#        134405
#        148530
#        164965
#
# Disc length: 2491 seconds
#
# Revision: 4
# Processed by: cddbd v1.5PL3 Copyright (c) Steve Scherf et al.
# Submitted via: ExactAudioCopy v0.95a4
#
DISCID=9209b90b
DTITLE=Paul Kelly - Live, May 1992 [CD1]
DYEAR=1992
DGENRE=Pop-Folk
TTITLE0=Foggy Highway
TTITLE1=To Her Door
TTITLE2=Wintercoat
TTITLE3=Taught By Experts
TTITLE4=From Little Things Big Things Grow
TTITLE5=I Can't Believe We Were Married
TTITLE6=Until Death Do Them Part
TTITLE7=Same Old Walk
TTITLE8=Don't Explain
TTITLE9=Stupid Song
TTITLE10=Brand New Ways
EXTD=YEAR: 1992
EXTT0=
EXTT1=
EXTT2=
EXTT3=
EXTT4=
EXTT5=
EXTT6=
EXTT7=
EXTT8=
EXTT9=
EXTT10=
PLAYORDER=
